# xmcd
#
# Track frame offsets: 
#        150
#        23044
#        43231
#        63008
#        85704
#        105773
#        128908
#        149584
#        172281
#        192226
#        222323
#
# Disc length: 3244 seconds
#
# Revision: 0
# Processed by: cddbd v1.5.2PL0 Copyright (c) Steve Scherf et al.
# Submitted via: ExactAudioCopy v1.0b1
#
DISCID=990caa0b
DTITLE=24 Pesos - Busted Broken And Blue
DYEAR=2010
DGENRE=Blues
TTITLE0=Maxwell Street
TTITLE1=Never Saw The Devil
TTITLE2=Waitin At The Station
TTITLE3=In The Summertime
TTITLE4=Lowdown Sweet And Dirty
TTITLE5=Live My Life To Sing The Blues
TTITLE6=Mean What I Say
TTITLE7=Somebody Else
TTITLE8=Busted Broken And Blue
TTITLE9=Day Becomes Night
TTITLE10=Neckbone And Gumbo
EXTD=
EXTT0=
EXTT1=
EXTT2=
EXTT3=
EXTT4=
EXTT5=
EXTT6=
EXTT7=
EXTT8=
EXTT9=
EXTT10=
PLAYORDER=
